<svg viewBox="0 0 100 100" xmlns="http://www.w3.org/2000/svg">
  <rect x="8" y="28" width="84" height="46" rx="3.5" fill="#ece7dd"/>
  <rect x="14" y="34" width="72" height="34" rx="1.5" fill="#131114"/>
  <rect x="16"   y="36.5" width="5" height="29" rx="1" fill="#ece7dd"/>
  <rect x="22.2" y="36.5" width="5" height="29" rx="1" fill="#ece7dd"/>
  <rect x="28.4" y="36.5" width="5" height="29" rx="1" fill="#ece7dd"/>
  <rect x="34.6" y="36.5" width="5" height="29" rx="1" fill="#ece7dd"/>
  <rect x="40.8" y="36.5" width="5" height="29" rx="1" fill="#ece7dd"/>
  <rect x="47"   y="36.5" width="5" height="29" rx="1" fill="#ece7dd"/>
  <rect x="53.2" y="36.5" width="5" height="29" rx="1" fill="#ece7dd"/>
  <rect x="59.4" y="36.5" width="5" height="29" rx="1" fill="#ece7dd"/>
  <rect x="65.6" y="36.5" width="5" height="29" rx="1" fill="#ece7dd"/>
  <rect x="70.5" y="36.5" width="5" height="29" rx="1" fill="#ece7dd"
        transform="rotate(21.23 75.5 65.5)"/>
  <rect x="11" y="31" width="78" height="40" rx="2.4"
        fill="none" stroke="#131114" stroke-width="1.3" opacity="0.9"/>
</svg>
