<svg viewBox="0 0 100 63.5" xmlns="http://www.w3.org/2000/svg">
  <style>@import url('https://fonts.googleapis.com/css2?family=Space+Grotesk:wght@600&display=swap');</style>
  <g transform="translate(18,4) scale(0.64)">
    <rect x="8" y="28" width="84" height="46" rx="3.5" fill="#1a1a1a"/>
    <rect x="11.5" y="31.5" width="77" height="39" rx="2.6" fill="none" stroke="#b8b8b8" stroke-width="1.6"/>
    <rect x="14" y="34" width="72" height="34" rx="1.5" fill="#ffffff"/>
    <rect x="16" y="36.5" width="5" height="29" rx="1" fill="#1a1a1a"/>
    <rect x="22.2" y="36.5" width="5" height="29" rx="1" fill="#1a1a1a"/>
    <rect x="28.4" y="36.5" width="5" height="29" rx="1" fill="#1a1a1a"/>
    <rect x="34.6" y="36.5" width="5" height="29" rx="1" fill="#1a1a1a"/>
    <rect x="40.8" y="36.5" width="5" height="29" rx="1" fill="#1a1a1a"/>
    <rect x="47" y="36.5" width="5" height="29" rx="1" fill="#1a1a1a"/>
    <rect x="53.2" y="36.5" width="5" height="29" rx="1" fill="#1a1a1a"/>
    <rect x="59.4" y="36.5" width="5" height="29" rx="1" fill="#1a1a1a"/>
    <rect x="65.6" y="36.5" width="5" height="29" rx="1" fill="#1a1a1a"/>
    <rect x="70.5" y="36.5" width="5" height="29" rx="1" fill="#1a1a1a" transform="rotate(21.23 75.5 65.5)"/>
  </g>
  <text x="50" y="59.5" text-anchor="middle"
        font-family="'Space Grotesk', sans-serif" font-weight="600"
        font-size="10" letter-spacing="0.01em" fill="#1a1a1a">crate</text>
</svg>
